<svg width="779" height="106" viewBox="0 0 779 106" fill="none" xmlns="http://www.w3.org/2000/svg">
<path d="M736.955 80.9685C727.505 80.9685 720.453 78.2122 715.8 72.6998C711.218 67.1158 708.927 59.5272 708.927 49.9341C708.927 43.491 710.108 37.907 712.471 33.182C714.905 28.4571 718.306 24.8418 722.673 22.3361C727.04 19.8305 732.087 18.5776 737.814 18.5776C744.973 18.5776 750.485 20.4748 754.351 24.2691C758.217 27.9917 760.222 33.3252 760.365 40.2695C760.365 44.9944 760.078 48.5023 759.506 50.7932H724.605C724.892 57.3079 726.431 62.3908 729.223 66.0419C732.015 69.6214 735.988 71.4112 741.143 71.4112C743.935 71.4112 746.798 70.9458 749.734 70.0152C752.74 69.0845 755.103 67.9749 756.821 66.6862L759.506 72.5924C757.573 74.6685 754.423 76.6015 750.056 78.3912C745.76 80.1094 741.393 80.9685 736.955 80.9685ZM745.331 44.3501C745.474 42.3456 745.546 40.8064 745.546 39.7325C745.546 30.211 742.36 25.4503 735.988 25.4503C732.48 25.4503 729.76 26.8463 727.827 29.6383C725.894 32.4303 724.82 37.3343 724.605 44.3501H745.331Z" fill="black"/>
<path d="M607.067 73.3441L613.081 72.3777V30.2827L606.208 28.3497V20.9401L624.034 18.6851L625.323 19.5441L626.934 23.0879V27.598C629.296 25.3071 632.661 23.3026 637.028 21.5845C641.466 19.7947 645.296 18.8998 648.518 18.8998C652.384 18.8998 655.498 19.5441 657.861 20.8328C660.295 22.1214 662.12 24.1259 663.337 26.8463C665.7 24.6986 668.814 22.8373 672.68 21.2623C676.546 19.6873 680.34 18.8998 684.063 18.8998C690.434 18.8998 694.944 20.7612 697.593 24.4839C700.242 28.2065 701.566 34.2917 701.566 42.7393V72.3777L708.546 73.3441V79.7873H680.734V73.3441L686.318 72.3777V43.1689C686.318 37.5849 685.638 33.6832 684.277 31.4639C682.989 29.173 680.483 28.0276 676.76 28.0276C674.756 28.0276 672.68 28.4929 670.532 29.4236C668.456 30.2827 666.595 31.3565 664.948 32.6451C665.449 35.3656 665.7 38.7661 665.7 42.8467V72.3777L672.358 73.3441V79.7873H644.33V73.3441L650.236 72.3777V42.8467C650.236 39.124 649.986 36.2246 649.485 34.1485C649.055 32.0008 648.196 30.4616 646.907 29.531C645.619 28.5287 643.757 28.0276 641.323 28.0276C639.032 28.0276 636.741 28.5645 634.451 29.6384C632.231 30.6406 630.227 31.8576 628.437 33.2894V72.3777L634.773 73.3441V79.7873H607.067V73.3441Z" fill="black"/>
<path d="M546.805 50.0415C546.805 43.312 548.13 37.5848 550.779 32.8599C553.499 28.1349 557.114 24.5912 561.624 22.2287C566.135 19.7947 571.039 18.5776 576.336 18.5776C585.357 18.5776 592.301 21.3697 597.169 26.9537C602.109 32.4661 604.579 39.9831 604.579 49.5046C604.579 56.3057 603.218 62.1045 600.498 66.901C597.849 71.626 594.27 75.1697 589.759 77.5321C585.321 79.823 580.417 80.9685 575.048 80.9685C566.099 80.9685 559.155 78.2122 554.215 72.6998C549.275 67.1158 546.805 59.563 546.805 50.0415ZM575.907 73.9884C583.996 73.9884 588.041 66.1851 588.041 50.5784C588.041 42.4172 587.075 36.2246 585.142 32.0008C583.209 27.7054 580.059 25.5577 575.692 25.5577C567.387 25.5577 563.235 33.361 563.235 48.9677C563.235 57.1289 564.237 63.3573 566.242 67.6527C568.318 71.8765 571.54 73.9884 575.907 73.9884Z" fill="black"/>
<path d="M475.063 8.05389L467.116 6.65788V0H499.761V6.65788L490.741 8.05389V35.0076H523.386V8.05389L515.117 6.65788V0H547.333V6.65788L539.172 8.05389V72.2703L547.333 73.3441V79.7872H515.01V73.3441L523.386 72.2703V43.1689H490.741V72.2703L499.761 73.3441V79.7872H466.901V73.3441L475.063 72.2703V8.05389Z" fill="black"/>
<path d="M418.231 80.7537C413.72 80.7537 410.392 79.7156 408.244 77.6395C406.096 75.5634 405.022 72.2703 405.022 67.7601V28.3497H398.042C398.042 28.3497 396.448 23.7461 395.097 23.0709C395.097 23.0709 399.653 22.1929 401.156 21.6918C402.66 21.1191 403.805 20.6538 404.593 20.2958C405.81 19.3651 406.848 17.7544 407.707 15.4635C408.351 13.9601 409.532 10.2374 411.251 4.29541H419.841L420.271 20.081H436.701V28.3497H420.378V58.525C420.378 62.534 420.486 65.3618 420.701 67.0084C420.915 68.655 421.381 69.7288 422.097 70.2299C422.812 70.6595 424.065 70.8743 425.855 70.8743C427.645 70.8743 429.506 70.6953 431.439 70.3373C433.372 69.9078 434.983 69.4067 436.271 68.8339L438.312 74.8475C436.307 76.3509 433.372 77.7111 429.506 78.9281C425.64 80.1452 421.882 80.7537 418.231 80.7537Z" fill="black"/>
<path d="M345.458 63.0352C345.458 56.5205 348.715 51.6165 355.23 48.3234C361.816 45.0302 370.299 43.3479 380.68 43.2763V40.8064C380.68 37.8712 380.358 35.5803 379.714 33.9338C379.141 32.2872 378.031 31.0702 376.385 30.2827C374.81 29.4236 372.483 28.994 369.405 28.994C365.897 28.994 362.747 29.4594 359.955 30.3901C357.163 31.2491 354.263 32.3946 351.257 33.8264L347.928 26.9537C349.001 26.0231 350.791 24.9134 353.297 23.6248C355.874 22.3362 358.917 21.2265 362.425 20.2958C365.933 19.2936 369.548 18.7924 373.27 18.7924C378.783 18.7924 383.078 19.5083 386.157 20.9402C389.307 22.372 391.562 24.6628 392.922 27.8128C394.282 30.9628 394.962 35.1866 394.962 40.4843V73.3442H400.761V79.3577C399.329 79.7157 397.289 80.0736 394.64 80.4316C391.991 80.7895 389.665 80.9685 387.66 80.9685C385.226 80.9685 383.579 80.6106 382.72 79.8947C381.933 79.1788 381.539 77.7112 381.539 75.4919V72.5925C379.606 74.7402 377.101 76.6731 374.022 78.3913C370.944 80.1094 367.472 80.9685 363.606 80.9685C360.313 80.9685 357.27 80.2884 354.478 78.9282C351.758 77.4964 349.574 75.4561 347.928 72.8072C346.281 70.0868 345.458 66.8294 345.458 63.0352ZM370.478 72.0555C371.982 72.0555 373.7 71.626 375.633 70.7669C377.566 69.8362 379.248 68.7266 380.68 67.438V49.8268C374.237 49.8268 369.405 50.9364 366.183 53.1557C363.033 55.3034 361.458 58.0954 361.458 61.5318C361.458 64.9681 362.246 67.5811 363.821 69.3709C365.467 71.1607 367.686 72.0555 370.478 72.0555Z" fill="black"/>
<path d="M276.83 105.361C275.541 105.361 270.211 105.011 268.727 104.686C256.025 101.901 250.497 89.8318 249.147 85.1054C249.147 85.1054 253.198 83.755 258.599 79.0286C260.625 82.4046 263.326 94.5581 273.562 95.2507C275.089 95.354 275.56 95.3637 276.83 95.2333C280.48 94.8584 283.249 94.0695 285.54 91.707C287.902 89.3445 288.438 88.0721 290.442 82.488L284.932 82.4046L265.351 27.598L261.271 26.3094V20.081H290.802V26.3094L278.855 27.598L292.359 63.4992L295.06 70.9263L299.715 57.3437L308.52 27.598L301.755 26.3094V20.081H325.058V26.3094L319.796 27.598C315.858 39.6251 311.957 51.2227 308.091 62.3908C304.225 73.5589 301.97 79.823 301.325 81.1832C299.035 87.1968 296.851 91.9934 294.775 95.5729C292.699 99.1524 289.93 100.799 287.066 102.66C284.203 104.522 280.91 105.361 276.83 105.361Z" fill="black"/>
<path d="M263.183 48.0012C263.183 54.0148 261.93 59.5272 259.425 64.5385C256.991 69.5498 253.375 73.5589 248.579 76.5657C243.854 79.5009 238.198 80.9685 231.612 80.9685C230.18 80.9685 228.677 80.8253 227.102 80.5389C225.598 80.3242 224.381 80.0378 223.451 79.6798L223.773 88.5928V98.3649L233.76 99.6535V105.774H201.866V99.6535L208.846 98.3649V30.2826L201.866 28.3497V20.9401L219.585 18.685H219.8L222.484 20.8327V26.8463C224.274 24.627 226.708 22.6941 229.786 21.0475C232.865 19.4009 236.23 18.5776 239.881 18.5776C246.682 18.5776 252.266 21.0117 256.633 25.8798C261 30.6764 263.183 38.0502 263.183 48.0012ZM234.297 27.4906C232.149 27.4906 230.109 27.9559 228.176 28.8866C226.243 29.8173 224.775 30.8554 223.773 32.0008V71.8407C224.274 72.5566 225.276 73.1651 226.78 73.6663C228.355 74.1674 230.073 74.418 231.934 74.418C236.587 74.418 240.274 72.4134 242.995 68.4044C245.787 64.3238 247.183 57.9522 247.183 49.2898C247.183 41.9876 246.002 36.5468 243.639 32.9673C241.277 29.3162 238.162 27.4906 234.297 27.4906Z" fill="black"/>
<path d="M200.941 48.0012C200.941 54.0148 199.688 59.5272 197.183 64.5385C194.749 69.5498 191.133 73.5589 186.337 76.5657C181.612 79.5009 175.956 80.9685 169.37 80.9685C167.938 80.9685 166.435 80.8253 164.86 80.5389C163.356 80.3242 162.139 80.0378 161.209 79.6798L161.531 88.5928V98.3649L171.518 99.6535V105.774H139.624V99.6535L146.604 98.3649V30.2826L139.624 28.3497V20.9401L157.343 18.685H157.557L160.242 20.8327V26.8463C162.032 24.627 164.466 22.6941 167.544 21.0475C170.623 19.4009 173.987 18.5776 177.638 18.5776C184.44 18.5776 190.024 21.0117 194.391 25.8798C198.758 30.6764 200.941 38.0502 200.941 48.0012ZM172.054 27.4906C169.907 27.4906 167.866 27.9559 165.933 28.8866C164.001 29.8173 162.533 30.8554 161.531 32.0008V71.8407C162.032 72.5566 163.034 73.1651 164.537 73.6663C166.112 74.1674 167.831 74.418 169.692 74.418C174.345 74.418 178.032 72.4134 180.753 68.4044C183.545 64.3238 184.941 57.9522 184.941 49.2898C184.941 41.9876 183.759 36.5468 181.397 32.9673C179.034 29.3162 175.92 27.4906 172.054 27.4906Z" fill="black"/>
<path d="M82.7736 63.0352C82.7736 56.5205 86.0309 51.6165 92.5456 48.3234C99.1319 45.0302 107.615 43.3479 117.996 43.2763V40.8064C117.996 37.8712 117.674 35.5803 117.029 33.9338C116.457 32.2872 115.347 31.0702 113.701 30.2827C112.126 29.4236 109.799 28.994 106.72 28.994C103.213 28.994 100.063 29.4594 97.2706 30.3901C94.4786 31.2491 91.5792 32.3946 88.5724 33.8264L85.2434 26.9537C86.3173 26.0231 88.107 24.9134 90.6127 23.6248C93.1899 22.3362 96.2325 21.2265 99.7404 20.2958C103.248 19.2936 106.864 18.7924 110.586 18.7924C116.099 18.7924 120.394 19.5083 123.473 20.9402C126.623 22.372 128.878 24.6628 130.238 27.8128C131.598 30.9628 132.278 35.1866 132.278 40.4843V73.3442H138.077V79.3577C136.645 79.7157 134.605 80.0736 131.956 80.4316C129.307 80.7895 126.98 80.9685 124.976 80.9685C122.542 80.9685 120.895 80.6106 120.036 79.8947C119.249 79.1788 118.855 77.7112 118.855 75.4919V72.5925C116.922 74.7402 114.416 76.6731 111.338 78.3913C108.26 80.1094 104.788 80.9685 100.922 80.9685C97.6285 80.9685 94.5859 80.2884 91.7939 78.9282C89.0735 77.4964 86.89 75.4561 85.2434 72.8072C83.5968 70.0868 82.7736 66.8294 82.7736 63.0352ZM107.794 72.0555C109.298 72.0555 111.016 71.626 112.949 70.7669C114.882 69.8362 116.564 68.7266 117.996 67.438V49.8268C111.553 49.8268 106.72 50.9364 103.499 53.1557C100.349 55.3034 98.774 58.0954 98.774 61.5318C98.774 64.9681 99.5614 67.5811 101.136 69.3709C102.783 71.1607 105.002 72.0555 107.794 72.0555Z" fill="black"/>
<path d="M8.16128 8.05389L0.214771 6.65788V0H32.8599V6.65788L23.8395 8.05389V35.0076H56.4846V8.05389L48.216 6.65788V0H80.4316V6.65788L72.2703 8.05389V72.2703L80.4316 73.3441V79.7872H48.1086V73.3441L56.4846 72.2703V43.1689H23.8395V72.2703L32.8599 73.3441V79.7872H0V73.3441L8.16128 72.2703V8.05389Z" fill="black"/>
<circle cx="770" cy="76" r="4.5" fill="black"/>
</svg>
