<svg width="1224" height="196" viewBox="0 0 1224 196" fill="none" xmlns="http://www.w3.org/2000/svg">
<path d="M94.5688 78.6944C107.199 78.1801 115.313 79.3328 126.38 85.9956C142.535 95.7221 154.729 116.184 159.081 134.262C162.916 150.197 165.287 172.374 156.687 187.216C154.683 190.675 151.48 193.862 147.515 194.523C132.058 197.1 120.469 188.808 108.635 181.498C121.726 167.353 132.625 153.382 138.233 134.709C145.454 110.673 122.515 99.5638 102.957 111.134L99.1613 113.938C93.5302 109.579 88.5327 106.713 81.3685 106.452C69.6209 106.024 58.7319 113.009 58.9794 125.591C59.3824 146.103 76.0136 167.671 89.551 181.644C87.3582 182.566 83.3575 185.225 81.1639 186.567C73.7607 191.2 65.9126 194.143 57.2252 195.301C42.8078 197.25 38.1429 180.3 36.9457 169.213C33.0117 132.783 53.0705 82.454 94.5688 78.6944Z" fill="#1a1a1a"/>
<ellipse cx="28.8281" cy="67.2688" rx="18.2302" ry="26.3326" transform="rotate(-29.4776 28.8281 67.2688)" fill="#1a1a1a"/>
<ellipse cx="167.918" cy="67.2688" rx="18.2302" ry="26.3326" transform="rotate(28.3131 167.918 67.2688)" fill="#1a1a1a"/>
<ellipse cx="125.781" cy="35.2159" rx="21.0022" ry="30.3365" transform="rotate(16.007 125.781 35.2159)" fill="#1a1a1a"/>
<ellipse cx="70.1151" cy="34.7982" rx="21.0022" ry="30.3365" transform="rotate(-15.2766 70.1151 34.7982)" fill="#1a1a1a"/>
<path d="M1188.27 97.2834C1188.84 98.1424 1190.13 98.9657 1192.13 99.7532C1194.21 100.469 1196.28 100.827 1198.36 100.827C1201.72 100.827 1204.23 100.147 1205.88 98.7868C1207.6 97.355 1208.45 95.4936 1208.45 93.2027C1208.45 90.8402 1207.42 88.9431 1205.34 87.5113C1203.26 86.0079 1199.76 84.1824 1194.82 82.0347L1191.81 80.746C1186.87 78.6699 1183.18 76.1643 1180.75 73.2291C1178.31 70.2939 1177.1 66.4996 1177.1 61.8462C1177.1 58.6247 1178.06 55.7611 1180 53.2554C1181.93 50.6782 1184.65 48.6736 1188.16 47.2418C1191.67 45.81 1195.71 45.0941 1200.29 45.0941C1203.66 45.0941 1206.52 45.3089 1208.88 45.7384C1211.32 46.168 1213.86 46.7407 1216.51 47.4566C1217.94 47.9577 1219.01 48.2441 1219.73 48.3157V62.3832H1211.25L1208.78 54.2219C1208.35 53.506 1207.38 52.8617 1205.88 52.2889C1204.37 51.7162 1202.66 51.4299 1200.72 51.4299C1197.79 51.4299 1195.42 52.0742 1193.64 53.3628C1191.92 54.5798 1191.06 56.298 1191.06 58.5173C1191.06 60.5218 1191.67 62.2042 1192.88 63.5644C1194.1 64.853 1195.42 65.8553 1196.86 66.5712C1198.29 67.2871 1200.94 68.4683 1204.8 70.1149C1208.67 71.7615 1211.85 73.3365 1214.36 74.8398C1216.94 76.3432 1219.05 78.312 1220.7 80.746C1222.41 83.1085 1223.27 86.0079 1223.27 89.4442C1223.27 94.7419 1221.2 99.0373 1217.05 102.33C1212.89 105.624 1206.92 107.27 1199.11 107.27C1195.46 107.27 1192.17 106.948 1189.23 106.304C1186.37 105.659 1183.04 104.8 1179.25 103.726L1174.95 101.363L1170.9 89.4442L1180.35 88.5339L1188.27 97.2834Z" fill="#1a1a1a"/>
<path d="M1155.12 107.055C1150.61 107.055 1147.28 106.017 1145.14 103.941C1142.99 101.865 1141.92 98.572 1141.92 94.0618V54.6514H1134.94V49.0674C1135.51 48.8526 1136.55 48.4946 1138.05 47.9935C1139.55 47.4208 1140.7 46.9554 1141.49 46.5975C1142.7 45.6668 1143.74 44.056 1144.6 41.7652C1145.24 40.2618 1146.43 36.5391 1148.14 30.5971H1156.73L1157.16 46.3827C1157.16 46.3827 1176.97 46.6718 1176.97 46.5975C1174.27 50.0478 1172.92 54.7741 1172.92 54.7741L1157.27 54.6514V84.8266C1157.27 88.8357 1157.38 91.6635 1157.59 93.3101C1157.81 94.9566 1158.27 96.0305 1158.99 96.5316C1159.71 96.9612 1160.96 97.1759 1162.75 97.1759C1164.54 97.1759 1166.4 96.997 1168.33 96.639C1170.27 96.2095 1171.88 95.7083 1173.16 95.1356L1175.21 101.149C1173.2 102.653 1170.27 104.013 1166.4 105.23C1162.53 106.447 1158.78 107.055 1155.12 107.055Z" fill="#1a1a1a"/>
<path d="M1108.32 107.27C1098.88 107.27 1091.82 104.514 1087.17 99.0015C1082.59 93.4175 1080.3 85.8289 1080.3 76.2358C1080.3 69.7927 1081.48 64.2087 1083.84 59.4837C1086.28 54.7588 1089.68 51.1435 1094.04 48.6378C1098.41 46.1321 1103.46 44.8793 1109.18 44.8793C1116.34 44.8793 1121.86 46.7765 1125.72 50.5707C1129.59 54.2934 1131.59 59.6269 1131.73 66.5711C1131.73 71.2961 1131.45 74.804 1130.88 77.0949H1095.98C1096.26 83.6096 1097.8 88.6925 1100.59 92.3436C1103.39 95.9231 1107.36 97.7129 1112.51 97.7129C1115.3 97.7129 1118.17 97.2475 1121.1 96.3169C1124.11 95.3862 1126.47 94.2765 1128.19 92.9879L1130.88 98.8941C1128.94 100.97 1125.79 102.903 1121.43 104.693C1117.13 106.411 1112.76 107.27 1108.32 107.27ZM1116.7 70.6518C1116.84 68.6473 1116.92 67.1081 1116.92 66.0342C1116.92 56.5127 1113.73 51.752 1107.36 51.752C1103.85 51.752 1101.13 53.148 1099.2 55.94C1097.26 58.732 1096.19 63.6359 1095.98 70.6518H1116.7Z" fill="#1a1a1a"/>
<path d="M1025.49 34.3556L1017.43 32.9596V26.3017H1033.65C1035.15 26.3017 1037.48 26.2301 1040.63 26.0869C1044.78 25.8006 1048.54 25.6574 1051.9 25.6574C1059.35 25.6574 1065.22 26.5881 1069.51 28.4494C1073.88 30.2392 1076.96 32.8522 1078.75 36.2885C1080.61 39.6533 1081.54 43.9487 1081.54 49.1748C1081.54 58.1951 1078.71 65.211 1073.06 70.2223C1067.47 75.2336 1059.71 77.7393 1049.76 77.7393C1045.82 77.7393 1042.99 77.6319 1041.27 77.4171V98.572L1055.66 99.6458V106.089H1017V99.6458L1025.49 98.572V34.3556ZM1041.17 70.5444C1042.81 70.9024 1045.6 71.0814 1049.54 71.0814C1054.34 71.0814 1058.17 69.4348 1061.03 66.1416C1063.97 62.7769 1065.43 57.2287 1065.43 49.4969C1065.43 43.4834 1064.11 39.1164 1061.46 36.3959C1058.88 33.6039 1054.91 32.2079 1049.54 32.2079C1047.54 32.2079 1045.46 32.3511 1043.31 32.6374C1042.31 32.7806 1041.59 32.8522 1041.17 32.8522V70.5444Z" fill="#1a1a1a"/>
<path d="M962.47 107.27C953.02 107.27 945.968 104.514 941.315 99.0015C936.733 93.4175 934.442 85.8289 934.442 76.2358C934.442 69.7927 935.623 64.2087 937.986 59.4837C940.42 54.7588 943.82 51.1435 948.187 48.6378C952.554 46.1321 957.602 44.8793 963.329 44.8793C970.488 44.8793 976 46.7765 979.866 50.5707C983.732 54.2934 985.736 59.6269 985.88 66.5711C985.88 71.2961 985.593 74.804 985.021 77.0949H950.12C950.407 83.6096 951.946 88.6925 954.738 92.3436C957.53 95.9231 961.503 97.7129 966.658 97.7129C969.45 97.7129 972.313 97.2475 975.249 96.3169C978.255 95.3862 980.618 94.2765 982.336 92.9879L985.021 98.8941C983.088 100.97 979.938 102.903 975.571 104.693C971.275 106.411 966.908 107.27 962.47 107.27ZM970.846 70.6518C970.989 68.6473 971.06 67.1081 971.06 66.0342C971.06 56.5127 967.875 51.752 961.503 51.752C957.995 51.752 955.275 53.148 953.342 55.94C951.409 58.732 950.335 63.6359 950.12 70.6518H970.846Z" fill="#1a1a1a"/>
<path d="M832.582 99.6458L838.596 98.6794V56.5843L831.723 54.6514V47.2418L849.549 44.9867L850.838 45.8458L852.449 49.3895V53.8997C854.811 51.6088 858.176 49.6043 862.543 47.8861C866.981 46.0964 870.811 45.2015 874.033 45.2015C877.899 45.2015 881.013 45.8458 883.375 47.1344C885.81 48.4231 887.635 50.4276 888.852 53.148C891.215 51.0003 894.329 49.139 898.195 47.564C902.061 45.989 905.855 45.2015 909.577 45.2015C915.949 45.2015 920.459 47.0629 923.108 50.7855C925.757 54.5082 927.081 60.5934 927.081 69.041V98.6794L934.061 99.6458V106.089H906.248V99.6458L911.833 98.6794V69.4706C911.833 63.8865 911.152 59.9849 909.792 57.7656C908.504 55.4747 905.998 54.3293 902.275 54.3293C900.271 54.3293 898.195 54.7946 896.047 55.7253C893.971 56.5843 892.109 57.6582 890.463 58.9468C890.964 61.6672 891.215 65.0678 891.215 69.1484V98.6794L897.872 99.6458V106.089H869.845V99.6458L875.751 98.6794V69.1484C875.751 65.4257 875.501 62.5263 874.999 60.4502C874.57 58.3025 873.711 56.7633 872.422 55.8326C871.134 54.8304 869.272 54.3293 866.838 54.3293C864.547 54.3293 862.256 54.8662 859.966 55.94C857.746 56.9423 855.742 58.1593 853.952 59.5911V98.6794L860.288 99.6458V106.089H832.582V99.6458Z" fill="#1a1a1a"/>
<path d="M772.32 76.3432C772.32 69.6137 773.645 63.8865 776.293 59.1616C779.014 54.4366 782.629 50.8929 787.139 48.5304C791.65 46.0963 796.553 44.8793 801.851 44.8793C810.871 44.8793 817.816 47.6713 822.684 53.2554C827.624 58.7678 830.093 66.2848 830.093 75.8063C830.093 82.6073 828.733 88.4061 826.013 93.2027C823.364 97.9276 819.784 101.471 815.274 103.834C810.836 106.125 805.932 107.27 800.563 107.27C791.614 107.27 784.669 104.514 779.73 99.0015C774.79 93.4175 772.32 85.8647 772.32 76.3432ZM801.422 100.29C809.511 100.29 813.556 92.4868 813.556 76.8801C813.556 68.7188 812.59 62.5263 810.657 58.3025C808.724 54.0071 805.574 51.8594 801.207 51.8594C792.902 51.8594 788.75 59.6627 788.75 75.2694C788.75 83.4306 789.752 89.659 791.757 93.9544C793.833 98.1782 797.055 100.29 801.422 100.29Z" fill="#1a1a1a"/>
<path d="M700.578 34.3556L692.631 32.9596V26.3017H725.276V32.9596L716.256 34.3556V61.3093H748.901V34.3556L740.632 32.9596V26.3017H772.848V32.9596L764.687 34.3556V98.572L772.848 99.6458V106.089H740.525V99.6458L748.901 98.572V69.4706H716.256V98.572L725.276 99.6458V106.089H692.416V99.6458L700.578 98.572V34.3556Z" fill="#1a1a1a"/>
<path d="M643.746 107.055C639.235 107.055 635.906 106.017 633.759 103.941C631.611 101.865 630.537 98.572 630.537 94.0618V54.6514H623.557C623.557 54.6514 621.963 50.0478 620.612 49.3726C620.612 49.3726 625.168 48.4946 626.671 47.9935C628.175 47.4208 629.32 46.9554 630.108 46.5975C631.325 45.6668 632.363 44.056 633.222 41.7652C633.866 40.2618 635.047 36.5391 636.766 30.5971H645.356L645.786 46.3827H662.216V54.6514H645.893V84.8266C645.893 88.8357 646.001 91.6635 646.215 93.3101C646.43 94.9566 646.896 96.0305 647.611 96.5316C648.327 96.9612 649.58 97.1759 651.37 97.1759C653.16 97.1759 655.021 96.997 656.954 96.639C658.887 96.2095 660.498 95.7083 661.786 95.1356L663.827 101.149C661.822 102.653 658.887 104.013 655.021 105.23C651.155 106.447 647.397 107.055 643.746 107.055Z" fill="#1a1a1a"/>
<path d="M570.973 89.3368C570.973 82.8221 574.23 77.9182 580.745 74.6251C587.331 71.3319 595.814 69.6496 606.195 69.578V67.1081C606.195 64.1729 605.873 61.882 605.229 60.2354C604.656 58.5889 603.546 57.3718 601.9 56.5843C600.325 55.7253 597.998 55.2957 594.92 55.2957C591.412 55.2957 588.262 55.7611 585.47 56.6917C582.678 57.5508 579.778 58.6963 576.771 60.1281L573.443 53.2554C574.516 52.3247 576.306 51.2151 578.812 49.9265C581.389 48.6378 584.432 47.5282 587.94 46.5975C591.447 45.5953 595.063 45.0941 598.785 45.0941C604.298 45.0941 608.593 45.81 611.672 47.2418C614.822 48.6736 617.077 50.9645 618.437 54.1145C619.797 57.2645 620.477 61.4883 620.477 66.7859V99.6458H626.276V105.659C624.844 106.017 622.804 106.375 620.155 106.733C617.506 107.091 615.18 107.27 613.175 107.27C610.741 107.27 609.094 106.912 608.235 106.196C607.448 105.48 607.054 104.013 607.054 101.794V98.8941C605.121 101.042 602.616 102.975 599.537 104.693C596.459 106.411 592.987 107.27 589.121 107.27C585.828 107.27 582.785 106.59 579.993 105.23C577.273 103.798 575.089 101.758 573.443 99.1089C571.796 96.3885 570.973 93.1311 570.973 89.3368ZM595.993 98.3572C597.497 98.3572 599.215 97.9277 601.148 97.0686C603.081 96.1379 604.763 95.0283 606.195 93.7396V76.1285C599.752 76.1285 594.92 77.2381 591.698 79.4574C588.548 81.6051 586.973 84.3971 586.973 87.8335C586.973 91.2698 587.761 93.8828 589.336 95.6726C590.982 97.4623 593.201 98.3572 595.993 98.3572Z" fill="#1a1a1a"/>
<path d="M502.345 131.663C501.056 131.663 495.726 131.313 494.242 130.988C481.54 128.203 476.012 116.133 474.662 111.407C474.662 111.407 478.713 110.057 484.114 105.33C486.14 108.706 488.841 120.86 499.077 121.552C500.604 121.656 501.075 121.665 502.345 121.535C505.995 121.16 508.764 120.371 511.055 118.009C513.417 115.646 513.953 114.374 515.957 108.79L510.447 108.706L490.866 53.8997L486.786 52.6111V46.3827H516.317V52.6111L504.37 53.8997L517.874 89.8009L520.575 97.228L525.23 83.6454L534.035 53.8997L527.27 52.6111V46.3827H550.573V52.6111L545.311 53.8997C541.373 65.9268 537.472 77.5244 533.606 88.6925C529.74 99.8606 527.485 106.125 526.84 107.485C524.55 113.498 522.366 118.295 520.29 121.875C518.214 125.454 515.445 127.101 512.581 128.962C509.718 130.823 506.425 131.663 502.345 131.663Z" fill="#1a1a1a"/>
<path d="M488.698 74.3029C488.698 80.3165 487.445 85.8289 484.94 90.8402C482.506 95.8515 478.89 99.8606 474.094 102.867C469.369 105.803 463.713 107.27 457.127 107.27C455.695 107.27 454.192 107.127 452.617 106.841C451.113 106.626 449.896 106.339 448.966 105.982L449.288 114.895V124.667L459.275 125.955V132.076H427.381V125.955L434.361 124.667V56.5843L427.381 54.6514V47.2418L445.1 44.9867H445.315L447.999 47.1344V53.148C449.789 50.9287 452.223 48.9958 455.301 47.3492C458.38 45.7026 461.745 44.8793 465.396 44.8793C472.197 44.8793 477.781 47.3134 482.148 52.1815C486.515 56.9781 488.698 64.3518 488.698 74.3029ZM459.812 53.7923C457.664 53.7923 455.624 54.2576 453.691 55.1883C451.758 56.119 450.29 57.157 449.288 58.3025V98.1424C449.789 98.8583 450.791 99.4668 452.295 99.968C453.87 100.469 455.588 100.72 457.449 100.72C462.102 100.72 465.789 98.7151 468.51 94.7061C471.302 90.6254 472.698 84.2539 472.698 75.5915C472.698 68.2893 471.517 62.8485 469.154 59.2689C466.792 55.6178 463.677 53.7923 459.812 53.7923Z" fill="#1a1a1a"/>
<path d="M426.456 74.3029C426.456 80.3165 425.203 85.8289 422.698 90.8402C420.263 95.8515 416.648 99.8606 411.852 102.867C407.127 105.803 401.471 107.27 394.885 107.27C393.453 107.27 391.95 107.127 390.375 106.841C388.871 106.626 387.654 106.339 386.723 105.982L387.046 114.895V124.667L397.032 125.955V132.076H365.139V125.955L372.119 124.667V56.5843L365.139 54.6514V47.2418L382.858 44.9867H383.072L385.757 47.1344V53.148C387.547 50.9287 389.981 48.9958 393.059 47.3492C396.138 45.7026 399.502 44.8793 403.153 44.8793C409.954 44.8793 415.539 47.3134 419.906 52.1815C424.273 56.9781 426.456 64.3518 426.456 74.3029ZM397.569 53.7923C395.422 53.7923 393.381 54.2576 391.448 55.1883C389.515 56.119 388.048 57.157 387.046 58.3025V98.1424C387.547 98.8583 388.549 99.4668 390.052 99.968C391.627 100.469 393.346 100.72 395.207 100.72C399.86 100.72 403.547 98.7151 406.268 94.7061C409.06 90.6254 410.456 84.2539 410.456 75.5915C410.456 68.2893 409.274 62.8485 406.912 59.2689C404.549 55.6178 401.435 53.7923 397.569 53.7923Z" fill="#1a1a1a"/>
<path d="M308.289 89.3368C308.289 82.8221 311.546 77.9182 318.061 74.6251C324.647 71.3319 333.13 69.6496 343.511 69.578V67.1081C343.511 64.1729 343.189 61.882 342.544 60.2354C341.972 58.5889 340.862 57.3718 339.215 56.5843C337.64 55.7253 335.314 55.2957 332.235 55.2957C328.728 55.2957 325.578 55.7611 322.786 56.6917C319.994 57.5508 317.094 58.6963 314.087 60.1281L310.758 53.2554C311.832 52.3247 313.622 51.2151 316.128 49.9265C318.705 48.6378 321.747 47.5282 325.255 46.5975C328.763 45.5953 332.379 45.0941 336.101 45.0941C341.614 45.0941 345.909 45.81 348.988 47.2418C352.137 48.6736 354.393 50.9645 355.753 54.1145C357.113 57.2645 357.793 61.4883 357.793 66.7859V99.6458H363.592V105.659C362.16 106.017 360.12 106.375 357.471 106.733C354.822 107.091 352.495 107.27 350.491 107.27C348.057 107.27 346.41 106.912 345.551 106.196C344.764 105.48 344.37 104.013 344.37 101.794V98.8941C342.437 101.042 339.931 102.975 336.853 104.693C333.775 106.411 330.302 107.27 326.437 107.27C323.143 107.27 320.101 106.59 317.309 105.23C314.588 103.798 312.405 101.758 310.758 99.1089C309.112 96.3885 308.289 93.1311 308.289 89.3368ZM333.309 98.3572C334.813 98.3572 336.531 97.9277 338.464 97.0686C340.397 96.1379 342.079 95.0283 343.511 93.7396V76.1285C337.068 76.1285 332.235 77.2381 329.014 79.4574C325.864 81.6051 324.289 84.3971 324.289 87.8335C324.289 91.2698 325.076 93.8828 326.651 95.6726C328.298 97.4623 330.517 98.3572 333.309 98.3572Z" fill="#1a1a1a"/>
<path d="M233.676 34.3556L225.73 32.9596V26.3017H258.375V32.9596L249.354 34.3556V61.3093H282V34.3556L273.731 32.9596V26.3017H305.947V32.9596L297.785 34.3556V98.572L305.947 99.6458V106.089H273.624V99.6458L282 98.572V69.4706H249.354V98.572L258.375 99.6458V106.089H225.515V99.6458L233.676 98.572V34.3556Z" fill="#1a1a1a"/>
<path d="M949.536 151.465C951.893 151.465 953.944 152.016 955.689 153.118C957.434 154.22 958.688 155.613 959.454 157.296V151.832H962.668V177.544C962.668 179.839 962.163 181.875 961.152 183.65C960.173 185.425 958.796 186.788 957.02 187.736C955.245 188.716 953.225 189.206 950.96 189.206C947.746 189.206 945.068 188.44 942.925 186.91C940.813 185.38 939.497 183.298 938.976 180.666H942.144C942.695 182.411 943.736 183.803 945.266 184.844C946.828 185.885 948.725 186.405 950.96 186.405C952.582 186.405 954.036 186.053 955.321 185.349C956.607 184.676 957.617 183.665 958.352 182.319C959.086 180.972 959.454 179.38 959.454 177.544V171.345C958.658 173.06 957.388 174.483 955.643 175.615C953.929 176.717 951.893 177.268 949.536 177.268C947.241 177.268 945.175 176.733 943.338 175.661C941.532 174.59 940.109 173.075 939.068 171.116C938.058 169.157 937.553 166.892 937.553 164.321C937.553 161.75 938.058 159.5 939.068 157.571C940.109 155.613 941.532 154.113 943.338 153.072C945.175 152.001 947.241 151.465 949.536 151.465ZM959.454 164.367C959.454 162.346 959.04 160.571 958.214 159.041C957.388 157.51 956.255 156.332 954.816 155.505C953.408 154.679 951.847 154.266 950.133 154.266C948.358 154.266 946.766 154.664 945.358 155.459C943.95 156.255 942.833 157.418 942.007 158.949C941.211 160.449 940.813 162.239 940.813 164.321C940.813 166.372 941.211 168.177 942.007 169.738C942.833 171.269 943.95 172.447 945.358 173.274C946.766 174.07 948.358 174.468 950.133 174.468C951.847 174.468 953.408 174.054 954.816 173.228C956.255 172.401 957.388 171.223 958.214 169.693C959.04 168.162 959.454 166.387 959.454 164.367Z" fill="#1a1a1a"/>
<path d="M919.426 151.373C922.425 151.373 924.874 152.307 926.772 154.174C928.67 156.01 929.618 158.689 929.618 162.209V176.901H926.45V162.576C926.45 159.852 925.762 157.77 924.384 156.332C923.038 154.893 921.186 154.174 918.829 154.174C916.411 154.174 914.482 154.939 913.044 156.47C911.605 158 910.886 160.25 910.886 163.219V176.901H907.672V151.832H910.886V156.102C911.682 154.572 912.829 153.409 914.329 152.613C915.829 151.786 917.528 151.373 919.426 151.373Z" fill="#1a1a1a"/>
<path d="M896.491 147.103C895.849 147.103 895.298 146.874 894.839 146.415C894.379 145.955 894.15 145.389 894.15 144.716C894.15 144.042 894.379 143.491 894.839 143.063C895.298 142.604 895.849 142.374 896.491 142.374C897.134 142.374 897.685 142.604 898.144 143.063C898.603 143.491 898.833 144.042 898.833 144.716C898.833 145.389 898.603 145.955 898.144 146.415C897.685 146.874 897.134 147.103 896.491 147.103ZM898.098 151.832V176.901H894.885V151.832H898.098Z" fill="#1a1a1a"/>
<path d="M880.401 154.541V170.106C880.401 171.636 880.692 172.692 881.274 173.274C881.855 173.855 882.881 174.146 884.35 174.146H887.288V176.901H883.845C881.58 176.901 879.896 176.38 878.794 175.34C877.692 174.268 877.141 172.524 877.141 170.106V154.541H873.652V151.832H877.141V145.542H880.401V151.832H887.288V154.541H880.401Z" fill="#1a1a1a"/>
<path d="M861.74 154.541V170.106C861.74 171.636 862.031 172.692 862.613 173.274C863.194 173.855 864.22 174.146 865.689 174.146H868.627V176.901H865.184C862.919 176.901 861.235 176.38 860.133 175.34C859.031 174.268 858.48 172.524 858.48 170.106V154.541H854.991V151.832H858.48V145.542H861.74V151.832H868.627V154.541H861.74Z" fill="#1a1a1a"/>
<path d="M846.381 147.103C845.739 147.103 845.188 146.874 844.729 146.415C844.269 145.955 844.04 145.389 844.04 144.716C844.04 144.042 844.269 143.491 844.729 143.063C845.188 142.604 845.739 142.374 846.381 142.374C847.024 142.374 847.575 142.604 848.034 143.063C848.493 143.491 848.723 144.042 848.723 144.716C848.723 145.389 848.493 145.955 848.034 146.415C847.575 146.874 847.024 147.103 846.381 147.103ZM847.988 151.832V176.901H844.774V151.832H847.988Z" fill="#1a1a1a"/>
<path d="M827.706 177.268C824.829 177.268 822.472 176.61 820.635 175.294C818.829 173.947 817.819 172.126 817.605 169.83H820.911C821.064 171.238 821.722 172.386 822.885 173.274C824.079 174.131 825.67 174.559 827.66 174.559C829.405 174.559 830.767 174.146 831.746 173.32C832.756 172.493 833.261 171.468 833.261 170.244C833.261 169.386 832.986 168.682 832.435 168.132C831.884 167.581 831.18 167.152 830.323 166.846C829.497 166.509 828.364 166.157 826.925 165.79C825.058 165.3 823.543 164.81 822.38 164.321C821.217 163.831 820.222 163.112 819.396 162.163C818.6 161.183 818.202 159.882 818.202 158.26C818.202 157.036 818.569 155.903 819.304 154.863C820.038 153.822 821.079 152.995 822.426 152.383C823.773 151.771 825.303 151.465 827.017 151.465C829.711 151.465 831.884 152.154 833.537 153.531C835.19 154.878 836.077 156.745 836.2 159.133H832.986C832.894 157.663 832.313 156.485 831.241 155.597C830.201 154.679 828.762 154.22 826.925 154.22C825.303 154.22 823.987 154.602 822.977 155.368C821.967 156.133 821.462 157.082 821.462 158.214C821.462 159.194 821.752 160.005 822.334 160.648C822.946 161.26 823.696 161.75 824.584 162.117C825.471 162.454 826.665 162.836 828.165 163.265C829.971 163.754 831.41 164.229 832.481 164.688C833.552 165.147 834.47 165.821 835.236 166.708C836.001 167.596 836.399 168.774 836.429 170.244C836.429 171.59 836.062 172.799 835.328 173.871C834.593 174.911 833.567 175.738 832.251 176.35C830.935 176.962 829.42 177.268 827.706 177.268Z" fill="#1a1a1a"/>
<path d="M789.696 154.541V170.106C789.696 171.636 789.987 172.692 790.568 173.274C791.15 173.855 792.175 174.146 793.645 174.146H796.583V176.901H793.14C790.875 176.901 789.191 176.38 788.089 175.34C786.987 174.268 786.436 172.524 786.436 170.106V154.541H782.947V151.832H786.436V145.542H789.696V151.832H796.583V154.541H789.696Z" fill="#1a1a1a"/>
<path d="M777.342 163.081C777.342 164.183 777.311 165.025 777.25 165.606H756.451C756.543 167.504 757.002 169.126 757.829 170.473C758.655 171.82 759.742 172.845 761.089 173.549C762.436 174.223 763.905 174.559 765.496 174.559C767.578 174.559 769.323 174.054 770.731 173.044C772.169 172.034 773.118 170.672 773.577 168.958H776.975C776.363 171.407 775.046 173.412 773.026 174.973C771.037 176.503 768.527 177.268 765.496 177.268C763.14 177.268 761.028 176.748 759.16 175.707C757.293 174.636 755.824 173.136 754.753 171.208C753.712 169.249 753.192 166.968 753.192 164.367C753.192 161.765 753.712 159.485 754.753 157.526C755.793 155.567 757.247 154.067 759.114 153.026C760.982 151.985 763.109 151.465 765.496 151.465C767.884 151.465 769.965 151.985 771.741 153.026C773.547 154.067 774.924 155.475 775.873 157.25C776.852 158.995 777.342 160.938 777.342 163.081ZM774.082 162.989C774.113 161.122 773.73 159.53 772.934 158.214C772.169 156.898 771.113 155.903 769.766 155.23C768.42 154.557 766.95 154.22 765.359 154.22C762.971 154.22 760.936 154.985 759.252 156.515C757.569 158.046 756.635 160.204 756.451 162.989H774.082Z" fill="#1a1a1a"/>
<path d="M724.551 157.342C725.347 155.658 726.602 154.266 728.316 153.164C730.061 152.031 732.127 151.465 734.514 151.465C736.779 151.465 738.815 152.001 740.621 153.072C742.457 154.113 743.881 155.613 744.891 157.571C745.931 159.5 746.452 161.75 746.452 164.321C746.452 166.892 745.931 169.157 744.891 171.116C743.881 173.075 742.457 174.59 740.621 175.661C738.815 176.733 736.779 177.268 734.514 177.268C732.157 177.268 730.107 176.717 728.362 175.615C726.617 174.483 725.347 173.075 724.551 171.391V188.747H721.383V151.832H724.551V157.342ZM743.192 164.321C743.192 162.239 742.779 160.449 741.952 158.949C741.156 157.418 740.055 156.255 738.647 155.459C737.239 154.664 735.647 154.266 733.872 154.266C732.157 154.266 730.581 154.679 729.143 155.505C727.735 156.332 726.617 157.51 725.791 159.041C724.964 160.571 724.551 162.346 724.551 164.367C724.551 166.387 724.964 168.162 725.791 169.693C726.617 171.223 727.735 172.401 729.143 173.228C730.581 174.054 732.157 174.468 733.872 174.468C735.647 174.468 737.239 174.07 738.647 173.274C740.055 172.447 741.156 171.269 741.952 169.738C742.779 168.177 743.192 166.372 743.192 164.321Z" fill="#1a1a1a"/>
<path d="M686.892 151.373C689.891 151.373 692.34 152.307 694.238 154.174C696.136 156.01 697.085 158.689 697.085 162.209V176.901H693.917V162.576C693.917 159.852 693.228 157.77 691.85 156.332C690.504 154.893 688.652 154.174 686.295 154.174C683.877 154.174 681.948 154.939 680.51 156.47C679.071 158 678.352 160.25 678.352 163.219V176.901H675.138V151.832H678.352V156.102C679.148 154.572 680.296 153.409 681.795 152.613C683.295 151.786 684.994 151.373 686.892 151.373Z" fill="#1a1a1a"/>
<path d="M663.958 147.103C663.315 147.103 662.764 146.874 662.305 146.415C661.846 145.955 661.616 145.389 661.616 144.716C661.616 144.042 661.846 143.491 662.305 143.063C662.764 142.604 663.315 142.374 663.958 142.374C664.6 142.374 665.151 142.604 665.61 143.063C666.07 143.491 666.299 144.042 666.299 144.716C666.299 145.389 666.07 145.955 665.61 146.415C665.151 146.874 664.6 147.103 663.958 147.103ZM665.565 151.832V176.901H662.351V151.832H665.565Z" fill="#1a1a1a"/>
<path d="M651.811 158.536V161.245H633.95V158.536H651.811Z" fill="#1a1a1a"/>
<path d="M628.07 163.081C628.07 164.183 628.04 165.025 627.979 165.606H607.18C607.272 167.504 607.731 169.126 608.557 170.473C609.384 171.82 610.47 172.845 611.817 173.549C613.164 174.223 614.633 174.559 616.225 174.559C618.306 174.559 620.051 174.054 621.459 173.044C622.898 172.034 623.846 170.672 624.306 168.958H627.703C627.091 171.407 625.775 173.412 623.755 174.973C621.765 176.503 619.255 177.268 616.225 177.268C613.868 177.268 611.756 176.748 609.889 175.707C608.022 174.636 606.552 173.136 605.481 171.208C604.44 169.249 603.92 166.968 603.92 164.367C603.92 161.765 604.44 159.485 605.481 157.526C606.522 155.567 607.976 154.067 609.843 153.026C611.71 151.985 613.837 151.465 616.225 151.465C618.612 151.465 620.694 151.985 622.469 153.026C624.275 154.067 625.652 155.475 626.601 157.25C627.581 158.995 628.07 160.938 628.07 163.081ZM624.811 162.989C624.841 161.122 624.459 159.53 623.663 158.214C622.898 156.898 621.842 155.903 620.495 155.23C619.148 154.557 617.679 154.22 616.087 154.22C613.7 154.22 611.664 154.985 609.981 156.515C608.297 158.046 607.364 160.204 607.18 162.989H624.811Z" fill="#1a1a1a"/>
<path d="M586.892 173.779L595.34 151.832H598.737L588.682 176.901H585.055L575 151.832H578.444L586.892 173.779Z" fill="#1a1a1a"/>
<path d="M566.804 147.103C566.162 147.103 565.611 146.874 565.151 146.415C564.692 145.955 564.463 145.389 564.463 144.716C564.463 144.042 564.692 143.491 565.151 143.063C565.611 142.604 566.162 142.374 566.804 142.374C567.447 142.374 567.998 142.604 568.457 143.063C568.916 143.491 569.146 144.042 569.146 144.716C569.146 145.389 568.916 145.955 568.457 146.415C567.998 146.874 567.447 147.103 566.804 147.103ZM568.411 151.832V176.901H565.197V151.832H568.411Z" fill="#1a1a1a"/>
<path d="M555.624 142.925V176.901H552.41V142.925H555.624Z" fill="#1a1a1a"/>
<path d="M502.768 164.321C502.768 161.75 503.288 159.5 504.329 157.571C505.369 155.612 506.793 154.113 508.598 153.072C510.435 152.001 512.501 151.465 514.797 151.465C517.001 151.465 518.99 152.001 520.765 153.072C522.541 154.143 523.842 155.536 524.668 157.25V142.925H527.882V176.901H524.668V171.299C523.903 173.044 522.648 174.483 520.903 175.615C519.159 176.717 517.108 177.268 514.751 177.268C512.455 177.268 510.389 176.733 508.553 175.661C506.747 174.59 505.323 173.075 504.283 171.116C503.273 169.157 502.768 166.892 502.768 164.321ZM524.668 164.367C524.668 162.346 524.255 160.571 523.428 159.041C522.602 157.51 521.469 156.332 520.031 155.505C518.623 154.679 517.062 154.266 515.348 154.266C513.572 154.266 511.981 154.664 510.573 155.459C509.165 156.255 508.048 157.418 507.221 158.949C506.425 160.449 506.027 162.239 506.027 164.321C506.027 166.371 506.425 168.177 507.221 169.738C508.048 171.269 509.165 172.447 510.573 173.274C511.981 174.07 513.572 174.467 515.348 174.467C517.062 174.467 518.623 174.054 520.031 173.228C521.469 172.401 522.602 171.223 523.428 169.693C524.255 168.162 524.668 166.387 524.668 164.367Z" fill="#1a1a1a"/>
<path d="M496.061 163.081C496.061 164.183 496.03 165.025 495.969 165.606H475.17C475.262 167.504 475.721 169.126 476.548 170.473C477.374 171.82 478.461 172.845 479.808 173.549C481.154 174.223 482.624 174.559 484.215 174.559C486.297 174.559 488.041 174.054 489.449 173.044C490.888 172.034 491.837 170.672 492.296 168.958H495.694C495.082 171.407 493.765 173.412 491.745 174.973C489.756 176.503 487.246 177.268 484.215 177.268C481.859 177.268 479.746 176.748 477.879 175.707C476.012 174.636 474.543 173.136 473.472 171.208C472.431 169.249 471.911 166.968 471.911 164.367C471.911 161.765 472.431 159.485 473.472 157.526C474.512 155.567 475.966 154.067 477.833 153.026C479.701 151.985 481.828 151.465 484.215 151.465C486.603 151.465 488.684 151.985 490.46 153.026C492.265 154.067 493.643 155.475 494.592 157.25C495.571 158.995 496.061 160.938 496.061 163.081ZM492.801 162.989C492.832 161.122 492.449 159.53 491.653 158.214C490.888 156.898 489.832 155.903 488.485 155.23C487.139 154.557 485.669 154.22 484.078 154.22C481.69 154.22 479.655 154.985 477.971 156.515C476.288 158.046 475.354 160.204 475.17 162.989H492.801Z" fill="#1a1a1a"/>
<path d="M457.663 156.286C458.367 154.725 459.439 153.516 460.877 152.659C462.347 151.802 464.137 151.373 466.249 151.373V154.725H465.377C463.051 154.725 461.183 155.352 459.775 156.607C458.367 157.862 457.663 159.959 457.663 162.897V176.901H454.45V151.832H457.663V156.286Z" fill="#1a1a1a"/>
<path d="M444.816 151.832V176.901H441.603V172.493C440.868 174.054 439.735 175.248 438.205 176.075C436.675 176.901 434.96 177.314 433.063 177.314C430.063 177.314 427.614 176.396 425.717 174.559C423.819 172.692 422.87 169.999 422.87 166.479V151.832H426.038V166.111C426.038 168.836 426.711 170.917 428.058 172.356C429.436 173.794 431.303 174.513 433.66 174.513C436.078 174.513 438.006 173.748 439.445 172.218C440.883 170.687 441.603 168.438 441.603 165.469V151.832H444.816Z" fill="#1a1a1a"/>
<path d="M406.03 177.268C403.153 177.268 400.796 176.61 398.96 175.294C397.154 173.947 396.144 172.126 395.93 169.83H399.235C399.388 171.238 400.046 172.386 401.21 173.274C402.403 174.131 403.995 174.559 405.985 174.559C407.729 174.559 409.091 174.146 410.071 173.32C411.081 172.493 411.586 171.468 411.586 170.244C411.586 169.386 411.31 168.682 410.76 168.132C410.209 167.581 409.505 167.152 408.648 166.846C407.821 166.509 406.689 166.157 405.25 165.79C403.383 165.3 401.868 164.81 400.705 164.321C399.541 163.831 398.547 163.112 397.72 162.163C396.924 161.183 396.526 159.882 396.526 158.26C396.526 157.036 396.894 155.903 397.628 154.863C398.363 153.822 399.404 152.995 400.75 152.383C402.097 151.771 403.628 151.465 405.342 151.465C408.035 151.465 410.209 152.154 411.861 153.531C413.514 154.878 414.402 156.745 414.524 159.133H411.31C411.219 157.663 410.637 156.485 409.566 155.597C408.525 154.679 407.086 154.22 405.25 154.22C403.628 154.22 402.311 154.602 401.301 155.368C400.291 156.133 399.786 157.082 399.786 158.214C399.786 159.194 400.077 160.005 400.659 160.648C401.271 161.26 402.021 161.75 402.908 162.117C403.796 162.454 404.99 162.836 406.49 163.265C408.296 163.754 409.734 164.229 410.805 164.688C411.877 165.147 412.795 165.821 413.56 166.708C414.325 167.596 414.723 168.774 414.754 170.244C414.754 171.59 414.387 172.799 413.652 173.871C412.917 174.911 411.892 175.738 410.576 176.35C409.26 176.962 407.745 177.268 406.03 177.268Z" fill="#1a1a1a"/>
<path d="M377.802 151.373C380.802 151.373 383.251 152.307 385.149 154.174C387.046 156.01 387.995 158.689 387.995 162.209V176.901H384.827V162.576C384.827 159.852 384.139 157.77 382.761 156.332C381.414 154.893 379.562 154.174 377.206 154.174C374.788 154.174 372.859 154.939 371.421 156.47C369.982 158 369.263 160.25 369.263 163.219V176.901H366.049V151.832H369.263V156.102C370.058 154.572 371.206 153.409 372.706 152.613C374.206 151.786 375.905 151.373 377.802 151.373Z" fill="#1a1a1a"/>
<path d="M354.868 147.103C354.225 147.103 353.674 146.874 353.215 146.415C352.756 145.955 352.527 145.389 352.527 144.716C352.527 144.042 352.756 143.491 353.215 143.063C353.674 142.604 354.225 142.374 354.868 142.374C355.511 142.374 356.062 142.604 356.521 143.063C356.98 143.491 357.21 144.042 357.21 144.716C357.21 145.389 356.98 145.955 356.521 146.415C356.062 146.874 355.511 147.103 354.868 147.103ZM356.475 151.832V176.901H353.261V151.832H356.475Z" fill="#1a1a1a"/>
<path d="M331.713 151.832L316.837 188.701H313.485L318.352 176.763L308.067 151.832H311.603L320.142 173.228L328.407 151.832H331.713Z" fill="#1a1a1a"/>
<path d="M301.478 142.925V176.901H298.264V142.925H301.478Z" fill="#1a1a1a"/>
<path d="M288.69 142.925V176.901H285.476V142.925H288.69Z" fill="#1a1a1a"/>
<path d="M275.843 151.832V176.901H272.629V172.493C271.895 174.054 270.762 175.248 269.232 176.075C267.701 176.901 265.987 177.314 264.089 177.314C261.09 177.314 258.641 176.396 256.743 174.559C254.846 172.692 253.897 169.999 253.897 166.479V151.832H257.065V166.111C257.065 168.836 257.738 170.917 259.085 172.356C260.462 173.794 262.329 174.513 264.686 174.513C267.104 174.513 269.033 173.748 270.471 172.218C271.91 170.687 272.629 168.438 272.629 165.469V151.832H275.843Z" fill="#1a1a1a"/>
<path d="M246.543 144.808V147.471H232.402V159.454H244.339V162.117H232.402V176.901H229.188V144.808H246.543Z" fill="#1a1a1a"/>
</svg>
