<svg width="236" height="259" viewBox="0 0 236 259" fill="none" xmlns="http://www.w3.org/2000/svg">
<ellipse cx="118" cy="129.5" rx="118" ry="129.5" fill="white"/>
<path d="M112.569 109.694C125.199 109.18 133.313 110.333 144.38 116.996C160.535 126.722 172.729 147.184 177.081 165.262C180.916 181.197 183.287 203.374 174.687 218.216C172.683 221.675 169.48 224.862 165.515 225.523C150.058 228.1 138.469 219.808 126.635 212.498C139.726 198.353 150.625 184.382 156.233 165.709C163.454 141.673 140.515 130.564 120.957 142.134L117.161 144.938C111.53 140.579 106.533 137.713 99.3685 137.452C87.621 137.024 76.7319 144.009 76.9794 156.591C77.3824 177.103 94.0137 198.671 107.551 212.644C105.358 213.566 101.358 216.225 99.164 217.567C91.7607 222.2 83.9126 225.143 75.2252 226.301C60.8079 228.25 56.1429 211.3 54.9458 200.213C51.0118 163.783 71.0706 113.454 112.569 109.694Z" fill="black"/>
<ellipse cx="46.8281" cy="98.2689" rx="18.2302" ry="26.3326" transform="rotate(-29.4776 46.8281 98.2689)" fill="black"/>
<ellipse cx="185.918" cy="98.2689" rx="18.2302" ry="26.3326" transform="rotate(28.3131 185.918 98.2689)" fill="black"/>
<ellipse cx="143.781" cy="66.2159" rx="21.0022" ry="30.3365" transform="rotate(16.007 143.781 66.2159)" fill="black"/>
<ellipse cx="88.1152" cy="65.7982" rx="21.0022" ry="30.3365" transform="rotate(-15.2766 88.1152 65.7982)" fill="black"/>
</svg>
